<svg viewBox="0 0 2191 915" fill="none" xmlns="http://www.w3.org/2000/svg">
<path d="M1051.09 0.252169C1081.05 0.206169 1111.02 0.319158 1140.98 0.591159C1134.53 4.87416 1068.13 -1.79286 1059.64 4.17514C1057.52 3.62414 1053.23 1.31717 1051.09 0.252169Z" fill="oklch(0.25 0.005 95)"/>
<path d="M1686.94 0.760404C1700.66 0.103404 1828.61 -0.664617 1833.8 1.00738C1832.35 2.14638 1832.77 2.08339 1831.11 2.61139C1823.14 -1.80661 1706.8 5.4374 1686.94 0.760404Z" fill="oklch(0.25 0.005 95)"/>
<path d="M1216.31 207.738C1212.22 205.343 1210.81 205.093 1214.68 204.258L1216.12 204.295L1216.31 207.738Z" fill="oklch(0.25 0.005 95)"/>
<path d="M1051.09 0.252169C1081.05 0.206169 1111.02 0.319158 1140.98 0.591159C1155.04 0.478159 1185.81 -0.364837 1198.81 1.08316C1206.46 1.93616 1238.99 12.7182 1248.64 15.7152C1278.35 24.9452 1308.13 33.9462 1337.97 42.7152L1065.86 249.482C1124.26 275.254 1182.92 300.416 1241.85 324.964L1068.42 416.535C1102.65 441.438 1142.56 475.355 1176.39 502.468L1386.89 670.745L1386.6 754.955L1111.02 533.826L1000.8 445.533C984.09 432.128 963.33 416.479 947.51 402.686C997.04 379.258 1050.35 354.249 1099.22 329.461C1045.74 308.587 993.12 285.781 940 264.191C1030.36 197.328 1120.29 129.898 1209.8 61.9052C1161.54 43.0622 1106.74 23.9411 1059.64 4.17514C1057.52 3.62414 1053.23 1.31717 1051.09 0.252169Z" fill="oklch(0.32 0.008 95)"/>
<path d="M1686.94 0.760404C1700.66 0.103404 1828.61 -0.664617 1833.8 1.00738C1832.35 2.14638 1832.77 2.08339 1831.11 2.61139C1819.58 8.18639 1794.5 16.9124 1781.29 21.9954L1676.98 61.9584C1767.6 128.016 1856.18 199.063 1947.66 264.059C1931.06 269.875 1904.85 281.612 1888.17 288.576C1855.04 302.441 1821.8 316.008 1788.43 329.275C1834.98 353.81 1891.13 380.496 1938.97 402.803C1889.06 440.822 1836.47 484.889 1787.27 524.4L1500.39 754.885L1500.28 670.035C1536.82 641.815 1573.55 611.645 1609.64 582.736L1817.39 416.6C1761.44 385.682 1702.12 355.061 1645.49 325.023C1662.43 316.874 1686.72 307.66 1704.77 300.012C1743.89 283.471 1782.91 266.686 1821.83 249.657C1739.64 189.736 1659.71 125.908 1578.44 64.7124C1568.76 57.4204 1559.1 50.2804 1549.61 42.7264L1686.94 0.760404Z" fill="oklch(0.32 0.008 95)"/>
<path d="M1520.55 203.883C1569.74 202.312 1628.09 203.38 1677.51 203.873L1476.29 323.847L1581.76 389.705C1600.11 401.174 1623.93 416.74 1642.52 427.118L1544.55 506.84C1529.27 519.15 1511.98 533.66 1496.53 545.265C1496.5 522.857 1496.78 499.707 1496.39 477.363C1512.12 462.906 1531.22 444.34 1547.27 430.871C1513.07 406.342 1478.19 380.918 1443.64 357.017C1408.93 381.396 1374.82 406.68 1340.08 430.956C1356.67 446.2 1373.11 461.601 1389.4 477.157L1389.31 545.143L1244.79 427.306L1410.98 323.291C1392.98 313.559 1374.08 301.759 1356.34 291.184L1268.62 238.808C1253.12 229.501 1231.85 215.797 1216.31 207.739C1212.22 205.344 1210.81 205.094 1214.68 204.259L1216.12 204.296C1234.9 203.093 1257.08 203.54 1276.15 203.533L1370.32 203.54C1383.41 212.626 1396.33 221.708 1409.81 230.218L1326 230.212L1404.07 277.287C1415.68 284.279 1433.61 294.346 1444.4 301.754L1561.87 230.455C1533.92 230.284 1505.97 230.285 1478.02 230.457L1520.55 203.883Z" fill="oklch(0.32 0.008 95)"/>
<path d="M2.88 855L129.6 525.72H217.92L344.64 855H267.36L243.84 790.2H100.32L76.8 855H2.88ZM120.96 732.6H223.2L193.92 651.48C192.64 647.96 191.04 643.8 189.12 639C187.52 633.88 185.76 628.28 183.84 622.2C181.92 616.12 180 610.2 178.08 604.44C176.48 598.36 174.88 592.92 173.28 588.12H170.4C168.8 594.2 166.72 601.4 164.16 609.72C161.6 617.72 159.04 625.56 156.48 633.24C153.92 640.6 151.84 646.68 150.24 651.48L120.96 732.6ZM386.224 855V525.72H566.704C591.024 525.72 611.184 530.04 627.184 538.68C643.504 547.32 655.664 559.48 663.664 575.16C671.664 590.52 675.664 608.28 675.664 628.44C675.664 649.88 670.864 668.92 661.264 685.56C651.664 701.88 637.744 714.36 619.504 723L686.704 855H607.504L549.424 735H457.744V855H386.224ZM457.744 678.36H557.104C571.504 678.36 582.704 674.04 590.704 665.4C598.704 656.44 602.704 644.44 602.704 629.4C602.704 619.8 600.944 611.64 597.424 604.92C593.904 597.88 588.784 592.6 582.064 589.08C575.344 585.56 567.024 583.8 557.104 583.8H457.744V678.36ZM811.931 855V585.72H706.331V525.72H990.011V585.72H883.931V855H811.931ZM1040.71 855V525.72H1112.23V855H1040.71ZM1315.65 860.76C1296.45 860.76 1278.21 858.84 1260.93 855C1243.65 851.16 1228.29 845.08 1214.85 836.76C1201.73 828.12 1191.33 817.4 1183.65 804.6C1176.29 791.48 1172.61 775.64 1172.61 757.08C1172.61 755.48 1172.61 753.88 1172.61 752.28C1172.61 750.36 1172.77 748.92 1173.09 747.96H1244.13C1243.81 748.92 1243.65 750.2 1243.65 751.8C1243.65 753.4 1243.65 754.84 1243.65 756.12C1243.65 766.36 1246.37 775 1251.81 782.04C1257.57 789.08 1265.89 794.36 1276.77 797.88C1287.65 801.4 1300.29 803.16 1314.69 803.16C1323.97 803.16 1332.13 802.68 1339.17 801.72C1346.53 800.44 1352.93 798.84 1358.37 796.92C1364.13 794.68 1368.77 792.12 1372.29 789.24C1376.13 786.36 1378.85 783 1380.45 779.16C1382.37 775.32 1383.33 771 1383.33 766.2C1383.33 757.56 1380.45 750.52 1374.69 745.08C1369.25 739.64 1361.57 735 1351.65 731.16C1342.05 727.32 1331.17 723.8 1319.01 720.6C1306.85 717.4 1294.37 714.2 1281.57 711C1268.77 707.48 1256.29 703.32 1244.13 698.52C1231.97 693.4 1221.09 687.32 1211.49 680.28C1201.89 673.24 1194.21 664.28 1188.45 653.4C1182.69 642.52 1179.81 629.4 1179.81 614.04C1179.81 597.72 1183.17 583.64 1189.89 571.8C1196.93 559.96 1206.69 550.2 1219.17 542.52C1231.65 534.84 1246.05 529.24 1262.37 525.72C1278.69 521.88 1296.45 519.96 1315.65 519.96C1333.57 519.96 1350.53 521.88 1366.53 525.72C1382.53 529.24 1396.61 535 1408.77 543C1420.93 551 1430.37 561.08 1437.09 573.24C1444.13 585.4 1447.65 599.8 1447.65 616.44V622.2H1378.05V618.36C1378.05 609.72 1375.49 602.36 1370.37 596.28C1365.25 590.2 1358.05 585.4 1348.77 581.88C1339.49 578.36 1328.61 576.6 1316.13 576.6C1302.69 576.6 1291.17 577.88 1281.57 580.44C1272.29 583 1265.09 586.84 1259.97 591.96C1255.17 596.76 1252.77 602.52 1252.77 609.24C1252.77 616.92 1255.49 623.32 1260.93 628.44C1266.69 633.24 1274.37 637.56 1283.97 641.4C1293.89 644.92 1304.93 648.12 1317.09 651C1329.25 653.88 1341.73 657.08 1354.53 660.6C1367.33 664.12 1379.81 668.28 1391.97 673.08C1404.13 677.88 1415.01 683.96 1424.61 691.32C1434.21 698.36 1441.89 707.16 1447.65 717.72C1453.41 728.28 1456.29 740.92 1456.29 755.64C1456.29 780.92 1450.21 801.24 1438.05 816.6C1425.89 831.96 1409.25 843.16 1388.13 850.2C1367.01 857.24 1342.85 860.76 1315.65 860.76ZM1482.07 855L1608.79 525.72H1697.11L1823.83 855H1746.55L1723.03 790.2H1579.51L1555.99 855H1482.07ZM1600.15 732.6H1702.39L1673.11 651.48C1671.83 647.96 1670.23 643.8 1668.31 639C1666.71 633.88 1664.95 628.28 1663.03 622.2C1661.11 616.12 1659.19 610.2 1657.27 604.44C1655.67 598.36 1654.07 592.92 1652.47 588.12H1649.59C1647.99 594.2 1645.91 601.4 1643.35 609.72C1640.79 617.72 1638.23 625.56 1635.67 633.24C1633.11 640.6 1631.03 646.68 1629.43 651.48L1600.15 732.6ZM1865.41 855V525.72H1931.17L2063.65 703.32C2065.57 705.56 2067.97 708.76 2070.85 712.92C2073.73 716.76 2076.45 720.6 2079.01 724.44C2081.57 728.28 2083.33 731.32 2084.29 733.56H2086.69C2086.69 728.12 2086.69 722.84 2086.69 717.72C2086.69 712.28 2086.69 707.48 2086.69 703.32V525.72H2154.37V855H2088.61L1953.25 673.08C1950.05 668.6 1946.69 663.64 1943.17 658.2C1939.65 652.76 1937.09 648.6 1935.49 645.72H1933.09C1933.09 650.52 1933.09 655.32 1933.09 660.12C1933.09 664.6 1933.09 668.92 1933.09 673.08V855H1865.41Z" fill="currentColor"/>
</svg>
